<mxfile host="Electron" modified="2023-04-16T14:53:07.020Z" agent="Mozilla/5.0 (Windows NT 10.0; Win64; x64) AppleWebKit/537.36 (KHTML, like Gecko) draw.io/21.1.2 Chrome/106.0.5249.199 Electron/21.4.3 Safari/537.36" etag="lEcqmLSe1Kx27iNUrGk1" version="21.1.2" type="device">
  <diagram name="Pagina-1" id="PJWTsGCiYasOyCPQF7eu">
    <mxGraphModel dx="712" dy="835" grid="1" gridSize="10" guides="1" tooltips="1" connect="1" arrows="1" fold="1" page="1" pageScale="1" pageWidth="827" pageHeight="1169" math="0" shadow="0">
      <root>
        <mxCell id="0" />
        <mxCell id="1" parent="0" />
        <mxCell id="xtWe4X3t-OTksCVC2Hbk-1" value="INIZIO" style="ellipse;whiteSpace=wrap;html=1;" vertex="1" parent="1">
          <mxGeometry x="280" y="80" width="120" height="80" as="geometry" />
        </mxCell>
        <mxCell id="xtWe4X3t-OTksCVC2Hbk-3" value="" style="endArrow=classic;html=1;rounded=0;exitX=0.5;exitY=1;exitDx=0;exitDy=0;" edge="1" parent="1" source="xtWe4X3t-OTksCVC2Hbk-1" target="xtWe4X3t-OTksCVC2Hbk-4">
          <mxGeometry width="50" height="50" relative="1" as="geometry">
            <mxPoint x="340" y="450" as="sourcePoint" />
            <mxPoint x="340" y="220" as="targetPoint" />
          </mxGeometry>
        </mxCell>
        <mxCell id="xtWe4X3t-OTksCVC2Hbk-4" value="leggi a&lt;br&gt;leggi b" style="shape=parallelogram;perimeter=parallelogramPerimeter;whiteSpace=wrap;html=1;fixedSize=1;" vertex="1" parent="1">
          <mxGeometry x="280" y="200" width="120" height="60" as="geometry" />
        </mxCell>
        <mxCell id="xtWe4X3t-OTksCVC2Hbk-5" value="" style="endArrow=classic;html=1;rounded=0;exitX=0.5;exitY=1;exitDx=0;exitDy=0;entryX=0.5;entryY=0;entryDx=0;entryDy=0;" edge="1" parent="1" source="xtWe4X3t-OTksCVC2Hbk-4" target="xtWe4X3t-OTksCVC2Hbk-10">
          <mxGeometry width="50" height="50" relative="1" as="geometry">
            <mxPoint x="340" y="450" as="sourcePoint" />
            <mxPoint x="230" y="300" as="targetPoint" />
          </mxGeometry>
        </mxCell>
        <mxCell id="xtWe4X3t-OTksCVC2Hbk-6" value="" style="ellipse;whiteSpace=wrap;html=1;aspect=fixed;" vertex="1" parent="1">
          <mxGeometry x="325" y="380" width="30" height="30" as="geometry" />
        </mxCell>
        <mxCell id="xtWe4X3t-OTksCVC2Hbk-7" value="i = 0; i &amp;lt; a; i++" style="rhombus;whiteSpace=wrap;html=1;" vertex="1" parent="1">
          <mxGeometry x="290" y="440" width="100" height="80" as="geometry" />
        </mxCell>
        <mxCell id="xtWe4X3t-OTksCVC2Hbk-8" value="" style="endArrow=classic;html=1;rounded=0;exitX=0.5;exitY=1;exitDx=0;exitDy=0;entryX=0.5;entryY=0;entryDx=0;entryDy=0;" edge="1" parent="1" source="xtWe4X3t-OTksCVC2Hbk-10" target="xtWe4X3t-OTksCVC2Hbk-6">
          <mxGeometry width="50" height="50" relative="1" as="geometry">
            <mxPoint x="280" y="400" as="sourcePoint" />
            <mxPoint x="340" y="380" as="targetPoint" />
          </mxGeometry>
        </mxCell>
        <mxCell id="xtWe4X3t-OTksCVC2Hbk-10" value="dichiara i, j" style="shape=parallelogram;perimeter=parallelogramPerimeter;whiteSpace=wrap;html=1;fixedSize=1;" vertex="1" parent="1">
          <mxGeometry x="280" y="290" width="120" height="60" as="geometry" />
        </mxCell>
        <mxCell id="xtWe4X3t-OTksCVC2Hbk-11" value="" style="endArrow=classic;html=1;rounded=0;exitX=0.5;exitY=1;exitDx=0;exitDy=0;entryX=0.5;entryY=0;entryDx=0;entryDy=0;" edge="1" parent="1" source="xtWe4X3t-OTksCVC2Hbk-6" target="xtWe4X3t-OTksCVC2Hbk-7">
          <mxGeometry width="50" height="50" relative="1" as="geometry">
            <mxPoint x="340" y="450" as="sourcePoint" />
            <mxPoint x="390" y="400" as="targetPoint" />
          </mxGeometry>
        </mxCell>
        <mxCell id="xtWe4X3t-OTksCVC2Hbk-12" value="" style="endArrow=classic;html=1;rounded=0;exitX=0.5;exitY=1;exitDx=0;exitDy=0;" edge="1" parent="1" source="xtWe4X3t-OTksCVC2Hbk-7" target="xtWe4X3t-OTksCVC2Hbk-18">
          <mxGeometry width="50" height="50" relative="1" as="geometry">
            <mxPoint x="340" y="450" as="sourcePoint" />
            <mxPoint x="340" y="580" as="targetPoint" />
          </mxGeometry>
        </mxCell>
        <mxCell id="xtWe4X3t-OTksCVC2Hbk-13" value="TRUE" style="edgeLabel;html=1;align=center;verticalAlign=middle;resizable=0;points=[];" vertex="1" connectable="0" parent="xtWe4X3t-OTksCVC2Hbk-12">
          <mxGeometry x="-0.4667" y="1" relative="1" as="geometry">
            <mxPoint as="offset" />
          </mxGeometry>
        </mxCell>
        <mxCell id="xtWe4X3t-OTksCVC2Hbk-16" value="j = 0; j&amp;lt;b; j++" style="rhombus;whiteSpace=wrap;html=1;" vertex="1" parent="1">
          <mxGeometry x="290" y="610" width="100" height="80" as="geometry" />
        </mxCell>
        <mxCell id="xtWe4X3t-OTksCVC2Hbk-17" value="stamapa &quot;* &quot;" style="shape=parallelogram;perimeter=parallelogramPerimeter;whiteSpace=wrap;html=1;fixedSize=1;" vertex="1" parent="1">
          <mxGeometry x="280" y="730" width="120" height="60" as="geometry" />
        </mxCell>
        <mxCell id="xtWe4X3t-OTksCVC2Hbk-18" value="" style="ellipse;whiteSpace=wrap;html=1;aspect=fixed;" vertex="1" parent="1">
          <mxGeometry x="325" y="555" width="30" height="30" as="geometry" />
        </mxCell>
        <mxCell id="xtWe4X3t-OTksCVC2Hbk-19" value="" style="endArrow=classic;html=1;rounded=0;exitX=0.5;exitY=1;exitDx=0;exitDy=0;entryX=0.5;entryY=0;entryDx=0;entryDy=0;" edge="1" parent="1" source="xtWe4X3t-OTksCVC2Hbk-18" target="xtWe4X3t-OTksCVC2Hbk-16">
          <mxGeometry width="50" height="50" relative="1" as="geometry">
            <mxPoint x="340" y="750" as="sourcePoint" />
            <mxPoint x="390" y="700" as="targetPoint" />
          </mxGeometry>
        </mxCell>
        <mxCell id="xtWe4X3t-OTksCVC2Hbk-20" value="" style="endArrow=classic;html=1;rounded=0;exitX=0.5;exitY=1;exitDx=0;exitDy=0;entryX=0.5;entryY=0;entryDx=0;entryDy=0;" edge="1" parent="1" source="xtWe4X3t-OTksCVC2Hbk-16" target="xtWe4X3t-OTksCVC2Hbk-17">
          <mxGeometry width="50" height="50" relative="1" as="geometry">
            <mxPoint x="340" y="750" as="sourcePoint" />
            <mxPoint x="340" y="730" as="targetPoint" />
          </mxGeometry>
        </mxCell>
        <mxCell id="xtWe4X3t-OTksCVC2Hbk-21" value="TRUE" style="edgeLabel;html=1;align=center;verticalAlign=middle;resizable=0;points=[];" vertex="1" connectable="0" parent="xtWe4X3t-OTksCVC2Hbk-20">
          <mxGeometry x="-0.5778" y="-1" relative="1" as="geometry">
            <mxPoint as="offset" />
          </mxGeometry>
        </mxCell>
        <mxCell id="xtWe4X3t-OTksCVC2Hbk-22" value="O" style="text;html=1;strokeColor=none;fillColor=none;align=center;verticalAlign=middle;whiteSpace=wrap;rounded=0;" vertex="1" parent="1">
          <mxGeometry x="370" y="745" width="60" height="30" as="geometry" />
        </mxCell>
        <mxCell id="xtWe4X3t-OTksCVC2Hbk-23" value="" style="endArrow=classic;html=1;rounded=0;exitX=0.5;exitY=1;exitDx=0;exitDy=0;entryX=0;entryY=0.5;entryDx=0;entryDy=0;" edge="1" parent="1" source="xtWe4X3t-OTksCVC2Hbk-17" target="xtWe4X3t-OTksCVC2Hbk-18">
          <mxGeometry width="50" height="50" relative="1" as="geometry">
            <mxPoint x="340" y="750" as="sourcePoint" />
            <mxPoint x="260" y="560" as="targetPoint" />
            <Array as="points">
              <mxPoint x="340" y="820" />
              <mxPoint x="260" y="820" />
              <mxPoint x="260" y="570" />
            </Array>
          </mxGeometry>
        </mxCell>
        <mxCell id="xtWe4X3t-OTksCVC2Hbk-26" value="Stampa &quot;\n|" style="shape=parallelogram;perimeter=parallelogramPerimeter;whiteSpace=wrap;html=1;fixedSize=1;" vertex="1" parent="1">
          <mxGeometry x="430" y="730" width="120" height="60" as="geometry" />
        </mxCell>
        <mxCell id="xtWe4X3t-OTksCVC2Hbk-27" value="" style="endArrow=classic;html=1;rounded=0;exitX=1;exitY=0.5;exitDx=0;exitDy=0;entryX=0.5;entryY=0;entryDx=0;entryDy=0;" edge="1" parent="1" source="xtWe4X3t-OTksCVC2Hbk-16" target="xtWe4X3t-OTksCVC2Hbk-26">
          <mxGeometry width="50" height="50" relative="1" as="geometry">
            <mxPoint x="340" y="750" as="sourcePoint" />
            <mxPoint x="390" y="700" as="targetPoint" />
            <Array as="points">
              <mxPoint x="490" y="650" />
            </Array>
          </mxGeometry>
        </mxCell>
        <mxCell id="xtWe4X3t-OTksCVC2Hbk-28" value="FALSE" style="edgeLabel;html=1;align=center;verticalAlign=middle;resizable=0;points=[];" vertex="1" connectable="0" parent="xtWe4X3t-OTksCVC2Hbk-27">
          <mxGeometry x="-0.6931" y="-1" relative="1" as="geometry">
            <mxPoint as="offset" />
          </mxGeometry>
        </mxCell>
        <mxCell id="xtWe4X3t-OTksCVC2Hbk-29" value="" style="endArrow=classic;html=1;rounded=0;exitX=0.5;exitY=1;exitDx=0;exitDy=0;entryX=0;entryY=0.5;entryDx=0;entryDy=0;" edge="1" parent="1" source="xtWe4X3t-OTksCVC2Hbk-26" target="xtWe4X3t-OTksCVC2Hbk-6">
          <mxGeometry width="50" height="50" relative="1" as="geometry">
            <mxPoint x="340" y="750" as="sourcePoint" />
            <mxPoint x="310" y="380" as="targetPoint" />
            <Array as="points">
              <mxPoint x="490" y="840" />
              <mxPoint x="240" y="840" />
              <mxPoint x="240" y="395" />
            </Array>
          </mxGeometry>
        </mxCell>
        <mxCell id="xtWe4X3t-OTksCVC2Hbk-32" value="FINE" style="ellipse;whiteSpace=wrap;html=1;" vertex="1" parent="1">
          <mxGeometry x="280" y="890" width="120" height="80" as="geometry" />
        </mxCell>
        <mxCell id="xtWe4X3t-OTksCVC2Hbk-33" value="" style="endArrow=classic;html=1;rounded=0;exitX=1;exitY=0.5;exitDx=0;exitDy=0;entryX=0.5;entryY=0;entryDx=0;entryDy=0;" edge="1" parent="1" source="xtWe4X3t-OTksCVC2Hbk-7" target="xtWe4X3t-OTksCVC2Hbk-32">
          <mxGeometry width="50" height="50" relative="1" as="geometry">
            <mxPoint x="340" y="750" as="sourcePoint" />
            <mxPoint x="390" y="700" as="targetPoint" />
            <Array as="points">
              <mxPoint x="560" y="480" />
              <mxPoint x="560" y="870" />
              <mxPoint x="340" y="870" />
            </Array>
          </mxGeometry>
        </mxCell>
        <mxCell id="xtWe4X3t-OTksCVC2Hbk-34" value="FALSE" style="edgeLabel;html=1;align=center;verticalAlign=middle;resizable=0;points=[];" vertex="1" connectable="0" parent="xtWe4X3t-OTksCVC2Hbk-33">
          <mxGeometry x="-0.895" relative="1" as="geometry">
            <mxPoint as="offset" />
          </mxGeometry>
        </mxCell>
      </root>
    </mxGraphModel>
  </diagram>
</mxfile>
